<svg width="70" height="70" viewBox="0 0 70 70" fill="none" xmlns="http://www.w3.org/2000/svg">
<path d="M35 0C53.697 0 70 15.435 70 33.25C70 50.764 54.0645 64.547 35 64.547C30.9224 64.5492 26.8704 63.9041 22.995 62.636C21.371 64.211 20.8145 64.7465 17.367 68.0715C14.882 69.9475 12.544 70.5845 10.4545 69.4015C8.3475 68.2115 7.714 65.8945 8.1445 62.8425L9.5445 54.726C3.465 49.007 0 41.447 0 33.25C0 15.435 16.2995 0 35 0ZM35 4.9C18.949 4.9 4.9 18.2 4.9 33.25C4.9 40.4075 8.092 46.998 13.72 51.905L13.79 51.9645L14.8295 52.8675L14.595 54.2325L14.112 57.0465L13.9825 57.7955L12.985 63.5985C12.9262 63.9892 12.8911 64.3831 12.88 64.778V65.1105C12.88 65.128 12.8765 65.135 12.873 65.1385C12.8975 65.1035 13.3735 64.953 14.189 64.358L21.784 56.987L23.233 57.533C26.997 58.9374 30.9825 59.6546 35 59.6505C51.506 59.6505 65.1 47.8905 65.1 33.25C65.1 18.2035 51.051 4.9 35 4.9V4.9ZM18.2945 27.3455C18.9996 27.3197 19.7027 27.4364 20.3617 27.6884C21.0207 27.9405 21.6221 28.3228 22.1301 28.8125C22.638 29.3023 23.042 29.8893 23.318 30.5387C23.5939 31.1881 23.7362 31.8864 23.7362 32.592C23.7362 33.2976 23.5939 33.9959 23.318 34.6453C23.042 35.2947 22.638 35.8817 22.1301 36.3715C21.6221 36.8612 21.0207 37.2435 20.3617 37.4956C19.7027 37.7476 18.9996 37.8643 18.2945 37.8385C16.9362 37.7889 15.6501 37.2144 14.7067 36.2359C13.7633 35.2574 13.2362 33.9512 13.2362 32.592C13.2362 31.2328 13.7633 29.9266 14.7067 28.9481C15.6501 27.9696 16.9362 27.3951 18.2945 27.3455V27.3455ZM35.7875 27.3455C36.4926 27.3197 37.1957 27.4364 37.8547 27.6884C38.5137 27.9405 39.1151 28.3228 39.6231 28.8125C40.131 29.3023 40.535 29.8893 40.811 30.5387C41.0869 31.1881 41.2292 31.8864 41.2292 32.592C41.2292 33.2976 41.0869 33.9959 40.811 34.6453C40.535 35.2947 40.131 35.8817 39.6231 36.3715C39.1151 36.8612 38.5137 37.2435 37.8547 37.4956C37.1957 37.7476 36.4926 37.8643 35.7875 37.8385C34.4292 37.7889 33.1431 37.2144 32.1997 36.2359C31.2563 35.2574 30.7292 33.9512 30.7292 32.592C30.7292 31.2328 31.2563 29.9266 32.1997 28.9481C33.1431 27.9696 34.4292 27.3951 35.7875 27.3455V27.3455ZM53.277 27.3455C53.9821 27.3197 54.6852 27.4364 55.3442 27.6884C56.0032 27.9405 56.6046 28.3228 57.1126 28.8125C57.6205 29.3023 58.0245 29.8893 58.3005 30.5387C58.5764 31.1881 58.7187 31.8864 58.7187 32.592C58.7187 33.2976 58.5764 33.9959 58.3005 34.6453C58.0245 35.2947 57.6205 35.8817 57.1126 36.3715C56.6046 36.8612 56.0032 37.2435 55.3442 37.4956C54.6852 37.7476 53.9821 37.8643 53.277 37.8385C51.9187 37.7889 50.6326 37.2144 49.6892 36.2359C48.7458 35.2574 48.2187 33.9512 48.2187 32.592C48.2187 31.2328 48.7458 29.9266 49.6892 28.9481C50.6326 27.9696 51.9187 27.3951 53.277 27.3455V27.3455Z" fill="#17A2B8"/>
</svg>
